<?xml version="1.0" encoding="utf-8"?>
<!-- Generator: Adobe Illustrator 16.0.0, SVG Export Plug-In . SVG Version: 6.00 Build 0)  -->
<!DOCTYPE svg PUBLIC "-//W3C//DTD SVG 1.1//EN" "http://www.w3.org/Graphics/SVG/1.1/DTD/svg11.dtd">
<svg version="1.1" id="Layer_1" xmlns="http://www.w3.org/2000/svg" xmlns:xlink="http://www.w3.org/1999/xlink" x="0px" y="0px"
	 width="798px" height="600px" viewBox="0 0 798 600" enable-background="new 0 0 798 600" xml:space="preserve">
<path fill-rule="evenodd" clip-rule="evenodd" fill="#F2EFE9" d="M-1,80c266.64,0,533.359,0,800,0c0,12.999,0,501.301,0,514.3
	c-1.979-0.251-3.19-1.51-5.5-1c-2.073,0.458-4.398,3.336-8,2c-1.363-0.506-0.945-1.542-3-2c-4.889,6.421-17.787,5.443-26.5,3.5
	c-5.321-1.187-7.796,2.695-12,1.5c-2.144-0.609-2.77-3.334-5-2.5c-2.848,0.736-2.954,2.354-7,2.5c-0.38-0.469-4.143-3.869-4.5-4
	c-2.584-0.948-6.562,0.988-8.5-0.5c-0.765-0.587-1.982-3.179-2.5-4c-3.338,1.996-12.865,4.709-19,3c-2.279-0.635-3.527-4.016-7-3
	c-0.5,0.5-1,1-1.5,1.5c-3.666,0-7.334,0-11,0c-2.354,0.689-6.891,2.412-9,3c-2.5-0.333-5-0.667-7.5-1c-4.039,1.34-3.785,4.881-11,5
	c-2.197-3.009-4.073-1.426-8.5-2.5c-0.238-0.058-0.982-1.084-1.5-1c-1.27,0.206-2.033,2.104-4.5,1.5c-2.456-0.601-4.021-3.434-6-4
	c-2.458-0.703-5.953,1.17-8.5-0.5c-1.283-0.842-2.55-3.348-4-4c-1.666-0.167-3.334-0.333-5-0.5c-0.666-0.667-1.334-1.333-2-2
	c-2.108-0.574-2.424,1.148-3.5,1.5c-2.5,0-5,0-7.5,0c-1.213,0.372-2.324,1.938-4.5,1.5c-2.477-0.498-3.352-2.81-5-3.5
	c-2.5,0.167-5,0.333-7.5,0.5c-0.653-0.161-2.545-1.396-3-1.5c-2.496-0.57-6.471,1.454-8,2c-2.333,0-4.667,0-7,0
	c-3.384,1.001-8.081,1.086-11.5,2c-3,0.167-6,0.333-9,0.5c-2.076,0.81-5.334,2.928-7.5,3.5c-4.587,1.211-14.058-4.523-17.5-4
	c-8.551,1.3-15.195,5.692-23,7c-4.572,0.766-8.705-2.709-14-1c-2.795,0.902-3.689,2.417-8,2.5c-0.082-0.11-14.328-8.949-14.5-9
	c-2.576-0.767-9.65,1.133-13.5,0.5c-1.744-0.287-1.166-2.031-3.5-1.5c-0.5,0.5-1,1-1.5,1.5c-4,0-8,0-12,0c-0.5,0.667-1,1.333-1.5,2
	c-2.643,1.622-6.873,0.754-9.5,0c-2.666,0-5.334,0-8,0c-2.848-0.902-13.672-4.712-16-1c-1.175,1.527-0.919,3.418-1.5,4.5
	c-0.59,0.401-0.841,0.387-2,0.5c-2.2-2.122-7.899,1.788-10,1c-1.471-0.552-1.547-1.891-4.5-2c0,0.333,0,0.667,0,1
	c0.376,0.536,0.301,0.473,0.5,1.5c-1.024,0.356-2.337,0.497-4,0.5c-0.573-0.728-1.001-1.1-1.5-2c-3.663,2.891-16.4,7.378-24,5
	c-1.621-0.507-1.684-2.654-4.5-2c-0.333,0.333-0.667,0.667-1,1c-4.166-0.167-8.334-0.333-12.5-0.5c-1.505,0.609-5.567,3.475-9,2.5
	c-0.5-0.5-1-1-1.5-1.5c-2.5-0.167-5-0.333-7.5-0.5c-0.5-0.5-1-1-1.5-1.5c-2.686-1.046-5.182-0.016-7.5-1
	c-1.642-0.697-2.621-2.479-4.5-3c-4.166-0.167-8.334-0.333-12.5-0.5c-0.951-0.283-1.863-1.735-2.5-2c-2.833,0-5.667,0-8.5,0
	c-1.544,1.963-6.576,5.229-9,6c-5-0.167-10-0.333-15-0.5c-0.333,0.5-0.667,1-1,1.5c-5.854,2.65-14.461-3.294-18-5
	c-2.541-1.225-3.66,1.546-6,1c-3.339-0.778-7.41-3.668-11.5-4c-3.641,5.078-8.567,0.247-13.5-0.5c-4.897-0.742-8.296,4.77-14,2.5
	c-2.632-1.048-6.404-4.41-11.5-3c-3.154,0.873-6.272,4.116-9.5,5c-2.915,0.798-5.877-1.014-8-1.5c-5.647-1.293-8.433,2.647-13,1.5
	c-2.042-0.513-3.28-2.318-5-3c-2.586-1.025-4.607-0.723-7-2c-0.667-0.667-1.333-1.333-2-2c-4,0-8,0-12,0
	c-0.788-0.266-1.711-1.735-2.5-2c-2.288-0.769-15.792-0.718-17.5,0c-1.283,0.539-3.721,2.519-5.5,3c-2.606,0.705-3.513-0.84-6-1
	c-0.985,1.586-2.277,2.684-3.5,4c-5.542,0.053-10.706-0.618-15-1c-1.055,1.718-1.689,2.406-4.5,2.5c-1.013-1.06-1.471-1.325-3.5-1.5
	c-0.986,1.424-1.506,1.507-4,1.5c-1.993-1.967-3.643-0.51-7-1.5c-1.853-0.546-7.212-4.996-10-4c-0.654,0.233-2.018,1.861-3,2
	c-2.529,0.358-3.821-3.567-7-2c-3.888,1.916-6.714,5.653-12,6c-6.722-5.98-12.787,1.042-18,2C-1,580.968-1,92.832-1,80z"/>
</svg>
